<svg xmlns="http://www.w3.org/2000/svg" viewBox="0 0 64 64">
    <path d="m 23.244141,3.5429688 -0.06836,0.00391 C 17.351031,3.9547083 11.757135,6.1541102 7.8164062,10.675781 3.8756773,15.197453 1.6762633,21.964197 2.3574219,31.191406 c 0.1807195,1.711085 1.9492672,13.990632 2.9609344,18.105466 0.8268964,3.281405 1.8801805,6.382232 3.3300781,8.863281 1.4498976,2.48105 3.3680506,4.423578 5.9257816,4.958985 l 0.203125,0.02539 c 0.578966,0.02465 1.154662,0.02332 1.589844,0.02734 l 0.0293,0 c 0.5979,-0.0087 1.10567,-0.167214 1.761719,-0.390625 0.65123,-0.22177 1.406307,-0.526512 2.248047,-0.900391 l 0.0078,0.01172 c 0.177913,-0.08111 0.397563,-0.195149 0.583985,-0.283203 0.0038,-0.0018 0.008,-0.0041 0.01172,-0.0059 l 0,0.002 c 0.135712,-0.06419 0.291795,-0.145247 0.43164,-0.212891 0.957984,-0.463321 2.002292,-0.999651 3.138672,-1.613281 0.03044,-0.01644 0.0593,-0.03034 0.08984,-0.04687 0.0042,-0.0023 0.0094,-0.0055 0.01367,-0.0078 5.81809,-3.149765 13.628816,-8.029489 20.683594,-12.816406 4.485655,-3.043677 8.634805,-6.031862 11.71289,-8.486328 1.539043,-1.227233 2.808217,-2.316772 3.740234,-3.244141 0.46601,-0.463684 0.84879,-0.884229 1.150391,-1.292968 0.301602,-0.40874 0.568105,-0.768962 0.636719,-1.410157 0.820239,-7.71395 0.821878,-13.18103 0.175781,-17.148437 l -0.0078,-0.04883 -0.01172,-0.04687 c -0.04698,-0.19197 -0.553437,-2.251046 -1.816406,-4.363281 -1.26297,-2.1122374 -3.448326,-4.4257818 -6.716797,-4.4257818 -4.420305,0 -8.290582,1.2338914 -11.654297,3.2988282 C 36.906317,5.5192871 30.38214,3.4260693 23.244141,3.5429688 Z m 0.06836,2.5019531 c 5.750003,-0.088941 10.961803,1.3300784 15.669922,4.2636721 l -8.34961,-1.2871096 0.0957,1.2578126 0.140625,1.839844 -0.898438,-0.138672 -0.05664,-0.732422 -6.818359,-1.152344 -0.269531,0.814453 -0.05859,0.175782 -1.722656,0.04883 -4.177734,2.263672 -1.38086,-0.986329 -2.316406,2.873047 -0.0039,-0.0059 -1.746094,1.082031 -2.2304689,2.539063 -1.6113281,2.732421 -2.78125,4.19336 C 5.1436908,19.821159 6.9919342,15.426993 9.7011719,12.318359 13.128651,8.3856021 18.012676,6.4241222 23.312501,6.0449219 Z M 54.23047,8.9414062 c 2.0916,0 3.532357,1.4698028 4.572265,3.2089848 1.028918,1.7208 1.488104,3.524176 1.515625,3.634765 0.579498,3.601333 0.608204,8.867151 -0.195312,16.423828 0.02498,-0.233436 0.01773,-0.05496 -0.164063,0.191407 -0.181789,0.246366 -0.492631,0.598191 -0.902343,1.005859 -0.819425,0.815336 -2.037992,1.868661 -3.535157,3.0625 -2.994328,2.387679 -7.109258,5.350109 -11.558593,8.369141 -7.358843,4.993235 -15.087036,9.665412 -20.78711,12.689453 0.206213,-0.494196 0.404735,-1.045301 0.601563,-1.613282 0.0284,-0.08197 0.05971,-0.148797 0.08789,-0.232421 0.0018,-0.0054 0.004,-0.01214 0.0059,-0.01758 0.227378,-0.67605 0.447174,-1.412133 0.658203,-2.205078 0.0063,-0.02374 0.01323,-0.04255 0.01953,-0.06641 1.51e-4,-5.69e-4 -1.5e-4,-0.0014 0,-0.002 0.15788,-0.597687 0.304224,-1.269907 0.451172,-1.941406 0.05879,-0.268305 0.124766,-0.500362 0.181641,-0.78125 7.3e-4,-0.0036 0.0012,-0.0081 0.002,-0.01172 0.1943,-0.961788 0.37728,-1.997603 0.546875,-3.117188 C 26.842808,40.18978 29.415559,30.388191 34.017665,22.554635 38.619685,14.721129 45.068934,8.9414062 54.23047,8.9414062 Z m -21.41211,2.4414058 5.326172,0.820313 -0.521484,1.091797 -4.601563,0.746094 z m -8.363281,0.970704 3.583984,0.605468 0.226563,2.960938 -4.828125,-0.496094 z m -2.355469,0.751953 -1.341797,4.052734 0.816407,0.08398 -0.230469,0.560546 -0.96875,2.332032 -0.345703,-4.478516 -1.351563,-0.964844 2.902344,-1.572265 z m 8.027344,0.923828 0.898438,0.140625 0.166015,2.193359 4.675782,-0.757812 c -1.484636,1.747321 -2.819444,3.664116 -4.00586,5.683593 -0.663487,1.129368 -1.281935,2.293967 -1.863281,3.478516 l -0.607422,-1.734375 1.640625,-4.085937 -7.287109,-1.482422 6.699218,0.689453 z m -14.267578,1.107422 2.248047,1.605469 0.171875,2.238281 -4.568359,2.111328 -0.230469,-3 z m -4.298828,4.095703 0.375,4.884766 8.398437,-3.884766 -1.193359,2.871094 3.972656,0.617187 -4.511719,3.285156 L 14.16797,23.458984 6.2910166,29.65625 7.2734385,30.443359 9.296876,32.064453 8.8183604,33.183594 6.7910166,32.792969 5.2050791,30.574219 5.1035166,29.414062 5.6816416,28.113281 9.2734385,22.695312 10.81836,20.080078 Z m 11.3125,0.09766 5.40625,1.09961 -0.78125,1.947265 -5.533203,-0.859375 z m 3.042969,4.824219 1.847656,0.287109 0.826172,2.355469 -3.955078,2.746094 -3.001954,-2.269531 z M 14.15625,26.011719 16.796875,28.125 11.902344,31.589844 9.5078125,29.669922 Z m 5.679688,2.412109 4.748046,3.587891 3.259766,-2.263672 c -0.218046,0.562236 -0.441972,1.121206 -0.644531,1.685547 l -4.433594,2.880859 -3.207031,-1.294922 0.210937,-0.384765 -4.34375,-1.089844 z m -6.560547,4.642578 3.498047,0.878906 -2.623047,4.798829 -4.7968754,-1.730469 1.5625004,-3.650391 0.910156,0.728516 z m -8.0273441,1.007813 0.025391,0.03711 -0.021484,0 c -0.00171,-0.01335 -0.0022,-0.02378 -0.00391,-0.03711 z m 20.9199221,0.412109 c -0.425704,1.364446 -0.793859,2.712961 -1.136719,4.046875 L 24.5,39.140625 l 0.298828,0.337891 c -0.07559,0.308546 -0.15522,0.620273 -0.226562,0.925781 l -1.589844,-1.806641 0.5625,-0.638672 -1.607422,-1.822265 1.044922,0.421875 z M 5.9746094,34.671875 8.0136719,35.064453 7.46875,36.337891 5.9726562,35.443359 Z m 12.6191406,0.113281 1.416016,0.572266 -0.01758,0.01953 -2.273438,2.582031 0.560547,0.634766 -1.332031,-0.798828 z m -12.953125,2.208985 1.2304688,0.736328 -0.1894532,0.445312 0.042969,0.01563 -0.021484,0.04883 0.3183594,0.189454 -0.085937,0.191406 -0.3164063,-0.191406 -0.59375,1.316406 C 5.8811399,38.783182 5.7630195,37.902186 5.640625,36.994141 Z m 2.8457031,1.832031 4.5117189,1.626953 -0.128906,0.287109 -1.015625,2.25586 1.658203,0.992187 -0.08594,0.191407 -0.978515,2.167968 -1.326172,-0.796875 1.050781,-2.33789 -2.5742188,-1.548829 0.390625,-0.865234 -1.8808593,-1.128906 z m 10.7617189,0.867187 1.382812,1.570313 0.105469,-0.119141 2.140625,2.44336 1.322266,-1.509766 c -0.01934,0.09079 -0.03768,0.17911 -0.05664,0.269531 l -1.677734,1.914063 1.078125,1.21875 c -0.02597,0.151162 -0.0513,0.301604 -0.07617,0.451172 l -0.02148,-0.0039 -0.09375,0.623047 -0.5,-0.570312 0.02539,-0.0293 -2.029297,-2.310547 0.191406,-0.21875 -2.242187,-2.560547 -0.15625,0.177734 z m -3.935547,1.091797 2.328125,1.394532 -1.087891,1.242187 2.03125,2.306641 -0.197265,0.222656 1.638672,1.853516 -0.02734,0.03125 2.240234,2.552734 0.576172,-0.65625 -0.353515,1.646484 -1.515626,-1.728515 -0.638671,0.728515 -1.603516,1.832032 2.242187,2.548828 0.919922,-1.042969 c -0.0229,0.07866 -0.04534,0.172964 -0.06836,0.25 -0.207782,0.695344 -0.420181,1.307959 -0.634766,1.876953 l -2.078125,-2.339844 -0.634765,0.722656 -0.169922,0.19336 -2.261719,-1.351563 0.884766,-1.957031 0.382812,0.433594 2.910156,-3.302734 -2.910156,-3.322266 -0.638672,0.728516 -0.453125,0.517578 0.509766,-1.126954 -1.662109,-0.998046 1.105468,-2.441407 -0.96289,-0.578125 z m -7.3984375,3.753906 -0.03125,0.07031 2.0273437,1.216797 -0.037109,0.08398 -1.15625,2.5625 -1.2226563,-0.859375 C 7.3645164,47.058788 7.236824,46.50547 7.1191406,45.943359 Z m 6.0488285,2.822266 0.77539,0.466797 -0.363281,0.414063 1.716797,1.949218 -1.919922,-1.152344 -0.392578,0.871094 -1.015625,2.253906 2.365234,1.417969 -0.02148,0.04687 -1.015625,2.25 2.880859,1.730469 0.421875,-0.935547 1.689453,1.935547 1.775391,-2.011719 c -0.558171,1.328496 -1.118001,2.275132 -1.630859,2.923828 l -1.304688,0.335938 -2.693359,-3.064453 -1.025391,2.265625 -3.18164,-1.908203 0.21289,-0.472657 0.986328,0.591797 1.410156,-3.11914 -2.886718,-1.732422 -0.392578,0.871093 -0.5000004,1.109376 -0.3300781,-0.197266 c -0.250003,-0.61149 -0.489479,-1.245936 -0.7148437,-1.91211 l 0.9785156,-2.175781 -0.9003906,-0.542969 0.068359,-0.152343 3.2089842,1.919922 z" color="#000"/>
</svg>
